<?xml version="1.0" encoding="iso-8859-1"?>
<!-- Uploaded to: SVG Repo, www.svgrepo.com, Generator: SVG Repo Mixer Tools -->
<svg height="800px" width="800px" version="1.1" id="Layer_1" xmlns="http://www.w3.org/2000/svg" xmlns:xlink="http://www.w3.org/1999/xlink" 
	 viewBox="0 0 512 512" xml:space="preserve">
<circle style="fill:#F7222B;" cx="408.625" cy="103.375" r="48.033"/>
<circle style="fill:#3C9A38;" cx="209.935" cy="302.064" r="48.033"/>
<polygon style="fill:#FF7500;" points="325.341,267.044 414.837,177.548 334.451,97.162 245.068,186.546 "/>
<polygon style="fill:#CE4500;" points="312.714,336.971 353.908,295.777 217.301,159.171 176.159,200.312 "/>
<polygon style="fill:#EA0011;" points="186.363,428.718 227.557,387.524 125.554,285.521 84.413,326.664 "/>
<path d="M435.204,129.958l-0.097,0.097c-4.078,4.078-4.078,10.689,0,14.768c2.039,2.039,4.711,3.058,7.384,3.058
	s5.344-1.019,7.384-3.058l0.097-0.097c4.078-4.078,4.078-10.689,0-14.768C445.893,125.881,439.283,125.881,435.204,129.958z"/>
<path d="M183.351,275.485l0.097-0.097c4.078-4.078,4.078-10.689,0-14.768c-4.079-4.078-10.688-4.078-14.768,0l-0.097,0.097
	c-4.078,4.078-4.078,10.689,0,14.768c2.039,2.039,4.711,3.058,7.383,3.058C178.639,278.544,181.312,277.525,183.351,275.485z"/>
<path d="M308.957,250.433c-4.078,4.078-4.078,10.689,0,14.768l0.097,0.097c2.039,2.039,4.711,3.058,7.384,3.058
	s5.344-1.019,7.384-3.058c4.078-4.078,4.078-10.689,0-14.768l-0.097-0.097C319.646,246.356,313.036,246.356,308.957,250.433z"/>
<path d="M508.942,3.058c-4.079-4.078-10.688-4.078-14.768,0l-52.26,52.26c-22.78-15.793-54.361-13.567-74.64,6.711
	c-10.12,10.121-15.738,23.06-16.873,36.315l-8.564-8.564c-4.079-4.078-10.688-4.078-14.768,0l-82,82l-20.187-20.187
	c-4.079-4.078-10.688-4.078-14.768,0l-41.358,41.358c-1.958,1.958-3.058,4.614-3.058,7.383s1.101,5.426,3.058,7.383l36.111,36.11
	c-0.833,0.073-1.668,0.145-2.503,0.254c-5.719,0.743-9.753,5.982-9.009,11.701c0.743,5.719,5.981,9.754,11.701,9.008
	c11.683-1.517,23.148,2.38,31.461,10.695c14.656,14.657,14.656,38.507,0,53.163c-14.654,14.656-38.505,14.658-53.163,0
	c-8.522-8.521-12.381-20.254-10.592-32.193c0.854-5.703-3.075-11.02-8.779-11.876c-5.694-0.851-11.018,3.075-11.875,8.779
	c-0.185,1.236-0.323,2.474-0.427,3.712l-18.837-18.836c-1.959-1.958-4.614-3.058-7.384-3.058s-5.425,1.101-7.383,3.058
	l-40.976,40.977c-4.078,4.078-4.078,10.689,0,14.767l43.095,43.096c-0.12,0.11-0.245,0.211-0.362,0.327L3.058,494.173
	c-4.078,4.078-4.078,10.689,0,14.768C5.098,510.981,7.77,512,10.442,512s5.344-1.019,7.384-3.058L134.6,392.168
	c0.116-0.116,0.217-0.241,0.327-0.361L179.1,435.98c1.959,1.958,4.614,3.058,7.383,3.058s5.425-1.101,7.383-3.058l40.977-40.977
	c1.958-1.958,3.058-4.614,3.058-7.384c0-2.769-1.101-5.426-3.058-7.384l-19.943-19.942c13.277-1.123,26.242-6.741,36.38-16.878
	c10.116-10.117,15.733-23.05,16.872-36.298l37.208,37.208c1.959,1.958,4.614,3.058,7.384,3.058c2.769,0,5.425-1.101,7.384-3.058
	l41.357-41.358c1.958-1.958,3.058-4.614,3.058-7.384c0-2.769-1.101-5.426-3.058-7.384l-14.514-14.514
	c-4.079-4.078-10.688-4.078-14.768,0c-4.078,4.078-4.078,10.689,0,14.767l7.131,7.131l-26.59,26.591L190.905,200.333l26.591-26.591
	l20.183,20.182c0.001,0.002,0.003,0.003,0.004,0.005s0.003,0.003,0.005,0.005l47.38,47.38c4.079,4.078,10.688,4.077,14.768,0
	c4.078-4.078,4.078-10.689,0-14.768l-40.002-40.001l74.616-74.616l65.618,65.618l-61.316,61.316c-4.078,4.078-4.078,10.689,0,14.768
	c2.039,2.039,4.711,3.058,7.384,3.058s5.344-1.019,7.384-3.058l68.7-68.7c4.078-4.078,4.078-10.689,0-14.768l-8.535-8.535
	c0.835-0.073,1.671-0.158,2.507-0.266c5.719-0.743,9.753-5.982,9.009-11.701c-0.743-5.719-5.979-9.754-11.701-9.008
	c-11.681,1.517-23.147-2.38-31.461-10.695c-14.656-14.657-14.656-38.506,0-53.163c14.654-14.656,38.505-14.657,53.163,0
	c8.521,8.522,12.381,20.255,10.592,32.194c-0.854,5.703,3.075,11.02,8.779,11.876c5.697,0.855,11.02-3.075,11.875-8.779
	c2.218-14.793-1.395-29.863-9.771-41.998l52.262-52.262C513.019,13.748,513.019,7.136,508.942,3.058z M186.484,413.83
	l-87.235-87.235l26.21-26.21l87.235,87.235L186.484,413.83z"/>
</svg>